<svg xmlns="http://www.w3.org/2000/svg" viewBox="0 0 24 30" x="0px" y="0px"><title>Artboard 122</title><g data-name="Layer 2"><path d="M13.25,22V2a1.25,1.25,0,0,0-2.5,0V22a1.25,1.25,0,0,0,2.5,0Z"/><path d="M21.25,16V8a1.25,1.25,0,0,0-2.5,0v8a1.25,1.25,0,0,0,2.5,0Z"/><path d="M4,6.75A1.252,1.252,0,0,0,2.75,8v8a1.25,1.25,0,0,0,2.5,0V8A1.252,1.252,0,0,0,4,6.75Z"/><path d="M9.25,19V5a1.25,1.25,0,0,0-2.5,0V19a1.25,1.25,0,0,0,2.5,0Z"/><path d="M17.25,19V5a1.25,1.25,0,0,0-2.5,0V19a1.25,1.25,0,0,0,2.5,0Z"/></g><text x="0" y="39" fill="#000000" font-size="5px" font-weight="bold" font-family="'Helvetica Neue', Helvetica, Arial-Unicode, Arial, Sans-serif">Created by Nursila</text><text x="0" y="44" fill="#000000" font-size="5px" font-weight="bold" font-family="'Helvetica Neue', Helvetica, Arial-Unicode, Arial, Sans-serif">from the Noun Project</text></svg>